<svg xmlns="http://www.w3.org/2000/svg" width="138" height="29" viewBox="0 0 138 29" fill="none">
  <g clip-path="url(#clip0_443_71502)">
    <path d="M5.23021 4.60779V5.4071L5.44431 4.63634L5.35391 4.97414L5.44906 4.63634L5.35867 4.97414L5.45382 4.63634C5.28201 4.58695 5.11356 4.52656 4.9495 4.45554C4.68109 4.34105 4.42044 4.20913 4.16923 4.06065C3.72419 3.80363 3.33189 3.4646 3.01309 3.06152C2.85737 2.86144 2.73377 2.63832 2.64674 2.40019C2.55592 2.1436 2.51083 1.87306 2.51353 1.60088H1.72373V2.40019H15.2311L23.9615 18.843H25.8646L16.1683 0.806335H0.910156V1.60088C0.910414 2.01582 0.974604 2.42824 1.10047 2.82363C1.30393 3.43315 1.64406 3.98809 2.09484 4.44603C2.64359 5.00134 3.28836 5.45268 3.99795 5.77821C4.32458 5.93687 4.66348 6.06893 5.01135 6.1731L5.11602 6.20165H14.8409L13.9797 4.60779" fill="#23E7A5"></path>
    <path d="M15.9437 8.53898H8.05527V9.33352L8.2694 8.56752C8.2694 8.56752 8.0648 8.50572 7.7936 8.38198C7.52587 8.26752 7.2667 8.13392 7.01809 7.98232C6.57046 7.71512 6.17672 7.36658 5.8572 6.95465C5.69608 6.74542 5.56479 6.51485 5.46706 6.26953C5.37469 5.99514 5.32807 5.70742 5.32908 5.41789H4.52978V6.21244H13.1413V4.60907H3.73047V5.40838C3.73079 5.83266 3.79494 6.25448 3.92078 6.65967C4.12046 7.28385 4.45878 7.85478 4.9104 8.32965C5.45451 8.90025 6.09981 9.36485 6.8135 9.69992C7.14248 9.86325 7.48467 9.99858 7.8364 10.1043L7.94107 10.1328H16.8048" fill="#23E7A5"></path>
    <path d="M16.6836 4.11796H20.6231L25.0621 12.4108L26.4656 11.659L21.5794 2.52411H16.6836V4.11796Z" fill="#23E7A5"></path>
    <path d="M21.9587 13.0759H32.5114V18.3618L35.9465 17.0106V22.7818L32.3877 21.4353V26.4548H11.2822V13.1996H18.3998L17.5387 11.6058H9.68359V28.0487H33.9863V23.7428L37.5451 25.0941V14.6698L34.1052 16.021V11.4821H21.9587V13.0759Z" fill="#23E7A5"></path>
    <path d="M135.153 25.5772H137.577V14.4324H135.377L132.289 19.496L131.768 20.7983H131.683L131.107 19.5263L127.831 14.4324H125.626V25.5772H127.903V19.7807L127.552 17.582H127.643L128.412 19.3507L131.174 23.5178H131.943L134.554 19.3627L135.311 17.5457H135.414L135.153 19.7625V25.5772ZM115.329 18.8903L115.693 17.1217H115.783L116.153 18.8721L117.061 21.3555H114.433L115.329 18.8903ZM118.569 25.553H121.089L116.674 14.3234H114.905L110.483 25.5772H112.907L113.833 23.112H117.601L118.569 25.553ZM98.8968 25.553H106.244V23.6329H101.289V20.9133H105.723V18.9691H101.289V16.3706H106.135V14.4324H98.8661L98.8968 25.553ZM94.1301 14.4324H84.5781V16.3706H88.1701V25.5772H90.5928V16.3706H94.1301V14.4324ZM77.3461 16.6189C77.5081 16.7555 77.6375 16.9276 77.7221 17.1219C77.8075 17.3163 77.8468 17.5276 77.8368 17.7395C77.8595 18.0011 77.8155 18.2642 77.7101 18.5045C77.6041 18.7448 77.4395 18.9546 77.2308 19.1144C76.7535 19.4089 76.1981 19.5525 75.6381 19.5263H74.6201V16.2919C74.8015 16.2531 74.9861 16.2328 75.1715 16.2313C75.4061 16.2313 75.6481 16.2313 75.8988 16.2313C76.4095 16.1947 76.9175 16.3383 77.3341 16.6371L77.3461 16.6189ZM72.2461 25.5772H74.6688V21.0042L75.9288 21.2162L78.7148 25.5772H81.4828L78.3028 20.5741L77.8188 20.8285C78.5581 20.6362 79.2161 20.2116 79.6961 19.6171C80.1855 18.9801 80.4341 18.1907 80.3988 17.3882C80.4181 16.8474 80.2795 16.3127 79.9988 15.8497C79.7381 15.4443 79.3775 15.1127 78.9515 14.8867C78.4835 14.646 77.9808 14.4804 77.4615 14.3961C76.9028 14.2991 76.3375 14.2504 75.7715 14.2507H74.9655C74.6748 14.2507 74.3601 14.2507 74.0635 14.2991C73.7661 14.3476 73.4575 14.3476 73.1368 14.3839C72.8155 14.4203 72.5308 14.4627 72.2701 14.5051L72.2461 25.5772ZM63.9905 25.5772H66.4133V14.4324H63.9905V25.5772ZM53.4272 18.9145L53.7967 17.1459H53.8815L54.251 18.8964L55.1655 21.3797H52.5368L53.4272 18.9145ZM56.6677 25.5772H59.1934L54.7597 14.3476H52.9911L48.5938 25.5772H51.0166L51.9493 23.112H55.7107L56.6677 25.5772Z" fill="currentColor"></path>
  </g>
  <defs>
    <clipPath id="clip0_443_71502">
      <rect width="137.333" height="28" fill="currentColor" transform="translate(0.617188 0.218445)"></rect>
    </clipPath>
  </defs>
</svg>
