<svg xmlns="http://www.w3.org/2000/svg" xmlns:xlink="http://www.w3.org/1999/xlink" version="1.1" id="Ebene_1" x="0px" y="0px" viewBox="0 0 600.7 111.8" style="enable-background:new 0 0 600.7 111.8;" xml:space="preserve">
<style type="text/css">
    .st0{fill:#00ADEF;}
    .st1{fill:currentColor;}
</style>
<g>
    <path class="st0" d="M94.4,79.3c16.1-12.8,24.3-25.7,24.5-38.5c0.3-20.6-20.6-35.6-28.7-40.7C92.9,30.3,80,55.5,68.5,71.5   c-2.2,3-4.4,5.8-6.6,8.5c6.8-0.4,14.7-0.8,23-0.8C88.2,79.1,91.4,79.2,94.4,79.3"/>
    <path class="st0" d="M116.5,86.8c-1.1-1.7-5.6-2.2-6.1-2.2c-4.5-0.6-9.4-1-14.8-1.2c-1,0-2-0.1-3.1-0.1c-1,0-2.1-0.1-3.2-0.1   c-1.5,0-3,0-4.5,0c-9.8,0-19.2,0.5-26.7,1.1c-1,0.1-1.9,0.2-2.9,0.2c-1,0.1-2,0.2-2.9,0.3c-0.1,0-0.1,0-0.2,0v0.1   c0.2,0.7,0.5,1.4,0.7,2.1c0.3,0.7,0.5,1.4,0.8,2c1.9,4.5,4.1,8.5,6.2,11.8c0.4,0.6,0.7,1.1,1.1,1.7c0.4,0.6,0.8,1.1,1.2,1.6   c2.5,3.4,4.7,5.8,5.9,7.2c18.7-13.7,44.6-19.2,61.9-21.8C130.8,85.8,117.6,88.4,116.5,86.8"/>
    <path class="st0" d="M58.7,105.9C58.7,105.8,58.7,105.8,58.7,105.9c-0.4-0.6-0.8-1.1-1.2-1.7c-0.4-0.5-0.7-1.1-1.1-1.7   c-2-3-3.9-6.6-5.7-10.6c-0.3-0.6-0.6-1.3-0.8-2c-0.3-0.7-0.5-1.3-0.8-2c-0.3-0.9-0.7-1.9-1-2.9c-0.2-0.6-0.4-1.3-0.6-1.9   c-0.2-0.6-0.4-1.3-0.5-1.9c-1.1-4.3-1.8-9-1.9-13.9c-0.4-18,7-35.8,22-52.9c-16.3,5.7-55,21.6-58,45.4c-1.6,12.4,6.8,25.5,25,39.1   c0.4,0.3,0.8,0.6,1.3,0.9c4.2,3.1,9,6.2,14.3,9.3c2.6,0,5.3,0.3,7.8,0.6c1.7,0.2,3.3,0.5,4.8,0.7c-0.1-0.1-0.2-0.2-0.3-0.4   C61,108.9,59.9,107.5,58.7,105.9"/>
</g>
<g>
    <path class="st1" d="M230.6,89H193V45.5h3.4v40.4h34.2V89"/>
    <path class="st1" d="M271.8,89.5c-20.2,0-23.5-2.6-23.5-15.5V45.5h3.4v28.1c0,10.7,1.9,12.8,19.7,12.8h2c17.7,0,20-1.9,20-12.8   V45.5h3.4V74c0,12.8-3.5,15.5-23.8,15.5H271.8"/>
    <path class="st1" d="M343.5,89h-4.2l-24.6-43.5h3.9l22.7,40.3h0.3l22.3-40.3h3.7L343.5,89"/>
    <path class="st1" d="M429.7,77.5c0,10-4.1,12-20.5,12h-2c-21,0-23-1.7-23-12.8v-1h3.3v1c0,8.7,1.6,9.8,19.5,9.8h1.9   c14.5,0,17.4-1.3,17.4-8.9v-0.8c0-6.6-2.1-8.4-19.1-8.4c-19.5,0-21.8-2.4-21.8-11.3v-0.9c0-8.6,3.9-11.1,19.7-11.1h1.4   c18.7,0,21.8,2.2,21.8,12.6v1H425v-1c0-8.2-1.9-9.7-18.1-9.7h-1.3c-14.3,0-16.8,1.5-16.8,8v0.8c0,6.6,1.1,8.3,18.7,8.3   c19.3,0,22.2,2.6,22.2,11.4L429.7,77.5"/>
    <path class="st1" d="M455.3,89h-3.4V45.5h3.4V89"/>
    <path class="st1" d="M504.1,85.9c20.4,0,22-1.6,22-18.3v-0.8c0-16.9-1.8-18.3-22-18.3h-22v37.3L504.1,85.9z M529.4,67.8   c0,18.3-2.7,21.1-25.2,21.1h-25.5V45.4h25.5c22.2,0,25.2,2,25.2,21.1V67.8"/>
    <path class="st1" d="M592,89h-40.3V45.5h40.1v3.1H555V65h35.3v3H555v18h36.9L592,89"/>
</g>
</svg>
