<svg xmlns="http://www.w3.org/2000/svg" width="132" height="38" viewBox="0 0 132 38" fill="none">
<path fill-rule="evenodd" clip-rule="evenodd" d="M131.498 3.40379C131.498 4.12886 130.906 4.71663 130.175 4.71663C129.445 4.71663 128.852 4.12886 128.852 3.40379C128.852 2.67872 129.445 2.09094 130.175 2.09094C130.906 2.09094 131.498 2.67872 131.498 3.40379ZM131.645 3.40379C131.645 4.20942 130.987 4.86254 130.175 4.86254C129.364 4.86254 128.705 4.20942 128.705 3.40379C128.705 2.59816 129.364 1.94507 130.175 1.94507C130.987 1.94507 131.645 2.59816 131.645 3.40379ZM130.093 3.62086L130.507 4.27903H130.809L130.373 3.60918C130.511 3.58584 130.616 3.53294 130.688 3.45047C130.762 3.36801 130.799 3.2622 130.799 3.13306C130.799 2.98212 130.749 2.86076 130.651 2.76896C130.554 2.67715 130.41 2.63125 130.221 2.63125H129.635V4.27903H129.903V3.62086H130.093ZM130.199 3.4318H129.903V2.85998H130.199C130.31 2.85998 130.392 2.88565 130.444 2.937C130.497 2.98679 130.524 3.05681 130.524 3.14706C130.524 3.33689 130.415 3.4318 130.199 3.4318Z" fill="#1A3967"/>
<path d="M39.6215 4.5491C43.9802 4.56093 47.5065 7.9571 47.5038 12.1407C47.4954 14.1594 46.6522 16.0923 45.1589 17.5142C43.6659 18.9361 41.6455 19.7304 39.5422 19.7225C35.1836 19.6923 31.673 16.2814 31.6948 12.0979C31.7167 7.91433 35.2628 4.53732 39.6215 4.5491ZM82.9002 13.8846V4.98114C82.9002 4.8467 83.014 4.73773 83.1541 4.73773H85.3332C85.395 4.73897 85.4542 4.76272 85.4982 4.80429C85.5449 4.84825 85.5716 4.90845 85.5716 4.97125V19.33C85.5716 19.3946 85.5449 19.4565 85.4973 19.5022C85.4497 19.5478 85.3852 19.5734 85.3176 19.5734H83.392V19.5387L77.0664 9.05032V19.33C77.0664 19.3954 77.0392 19.4581 76.9903 19.5039C76.9418 19.5497 76.876 19.5748 76.8075 19.5734H74.6129C74.4755 19.5734 74.3643 19.4667 74.3643 19.335V5.02589C74.3669 4.86595 74.503 4.73769 74.6698 4.73773H77.351L82.9002 13.8846ZM49.2725 4.81652C49.333 4.76245 49.4144 4.73557 49.4966 4.74268H55.5995C55.6088 4.74299 59.9012 4.8964 59.9012 9.24901C59.9012 13.6054 55.6635 13.8199 55.6617 13.82H52.5816V19.3151C52.579 19.4457 52.4691 19.5509 52.333 19.5536H49.4446C49.2987 19.5536 49.1809 19.4402 49.1809 19.3002V5.02589C49.1791 4.94671 49.2124 4.87058 49.2725 4.81652ZM72.066 4.72776C72.207 4.72776 72.3221 4.83598 72.3248 4.97125V7.05799C72.3248 7.12207 72.2981 7.18351 72.2501 7.22835C72.2025 7.27323 72.138 7.29777 72.0713 7.29645H65.1142C64.9781 7.29909 64.8682 7.40436 64.8656 7.53495V10.347C64.8656 10.4788 64.9767 10.5856 65.1142 10.5856H69.7108C69.777 10.5842 69.8411 10.6088 69.8882 10.6539C69.9349 10.6989 69.9607 10.7604 69.9594 10.824V12.9207C69.9594 12.9835 69.9327 13.0437 69.886 13.0876C69.8393 13.1315 69.7761 13.1556 69.7108 13.1542H65.1142C64.9781 13.1569 64.8682 13.2621 64.8656 13.3927V16.7464C64.8682 16.8762 64.979 16.98 65.1142 16.9799H72.0713C72.2092 16.9799 72.3221 17.0859 72.3248 17.2184V19.3151C72.3248 19.3792 72.2981 19.4406 72.2501 19.4855C72.2025 19.5304 72.138 19.5549 72.0713 19.5536H61.7957C61.6587 19.5536 61.5475 19.4468 61.5475 19.3151V4.96622C61.5475 4.90214 61.5742 4.8407 61.6218 4.79582C61.6698 4.75098 61.7343 4.72644 61.801 4.72776H72.066ZM39.494 7.94249C37.083 7.94885 35.1319 9.82656 35.1319 12.1407C35.136 13.259 35.6031 14.3298 36.4304 15.1173C37.2576 15.9047 38.3772 16.3443 39.5422 16.339C41.9532 16.3198 43.8933 14.4318 43.88 12.1177C43.8667 9.80356 41.905 7.93613 39.494 7.94249ZM52.6541 6.95361C52.6541 6.95361 52.4989 6.92876 52.4989 7.1275V11.5643H54.73C55.3491 11.5643 55.9406 11.3179 56.363 10.8838C56.786 10.4497 57.0025 9.86676 56.9607 9.27386C57.0203 8.67636 56.8104 8.08306 56.3835 7.64418C55.957 7.20531 55.3549 6.96292 54.73 6.97846L52.6541 6.95361Z" fill="#ED7F22"/>
<path d="M124.259 13.865V4.96153C124.259 4.8271 124.373 4.71813 124.513 4.71809H126.692C126.754 4.71937 126.813 4.74307 126.857 4.78469C126.903 4.82864 126.93 4.8888 126.93 4.9516V19.3104C126.93 19.4449 126.816 19.5538 126.676 19.5538H124.751V19.5191L118.404 9.03071V19.3104C118.404 19.4449 118.291 19.5538 118.151 19.5538H115.951C115.885 19.5538 115.822 19.5286 115.777 19.4837C115.731 19.4388 115.706 19.3781 115.707 19.3154V5.03608C115.706 4.95134 115.74 4.86964 115.803 4.80975C115.865 4.74982 115.95 4.71676 116.039 4.71809H118.71L124.259 13.865ZM103.055 4.81178C103.115 4.75772 103.197 4.73089 103.278 4.73799H109.387C109.394 4.73821 113.683 4.89056 113.683 9.24437C113.683 13.6 109.447 13.8152 109.444 13.8153H106.338V19.3104C106.338 19.4421 106.226 19.5489 106.089 19.5489H103.227C103.081 19.5489 102.963 19.4354 102.963 19.2955V5.0212C102.961 4.94203 102.994 4.86585 103.055 4.81178ZM90.2753 4.73799C90.3789 4.73773 90.4714 4.79912 90.5083 4.89202L94.1577 14.2724L97.7812 4.89202C97.8208 4.79925 97.9146 4.73848 98.0191 4.73799H100.509C100.592 4.73614 100.67 4.77387 100.718 4.83866C100.766 4.90341 100.777 4.98673 100.747 5.06092L95.193 19.375H95.2139C95.1738 19.4705 95.0778 19.5334 94.9702 19.534H93.3398C93.2344 19.5314 93.141 19.4688 93.1019 19.375L87.5474 5.06092C87.5181 4.98673 87.5292 4.90341 87.5768 4.83866C87.6248 4.77387 87.7026 4.73614 87.7853 4.73799H90.2753ZM106.436 6.94892C106.436 6.94892 106.281 6.92412 106.281 7.12286V11.5597H108.512C109.131 11.5595 109.723 11.3133 110.147 10.8794C110.571 10.4455 110.788 9.86261 110.748 9.26922C110.806 8.67119 110.595 8.07802 110.167 7.63936C109.74 7.20066 109.137 6.95845 108.512 6.97381L106.436 6.94892Z" fill="#1A3967"/>
<path d="M16.0161 11.4562C16.0249 9.60093 14.5456 8.033 12.5736 7.80729C10.6016 7.58159 8.76068 8.76952 8.28937 10.5718C7.81806 12.3742 8.86541 14.2208 10.7269 14.8693L9.2194 22.3671H15.0005L13.5196 14.8545C15.0224 14.3107 16.0137 12.9613 16.0161 11.4562Z" fill="#1A3967"/>
<path d="M23.8554 11.4071C23.723 5.06927 18.4973 0 12.0965 0C5.69572 0 0.470073 5.06927 0.337646 11.4071C0.337512 15.515 2.54276 19.3133 6.12772 21.3797L6.88294 16.4233C5.72303 15.1658 5.08006 13.5241 5.08046 11.8209C5.18234 8.05587 8.29349 5.05616 12.0965 5.05616C15.8996 5.05616 19.0108 8.05587 19.1126 11.8209C19.1132 13.5377 18.4606 15.1917 17.2849 16.4532L18.0351 21.3946C21.6394 19.3361 23.8588 15.5276 23.8554 11.4071Z" fill="#ED7F22"/>
<path d="M32.2443 34.3689V25.5063H35.8718C36.5692 25.5063 37.1633 25.6347 37.6541 25.8915C38.145 26.1454 38.5191 26.4988 38.7764 26.9517C39.037 27.4017 39.167 27.9211 39.167 28.5095C39.167 29.0981 39.0355 29.6174 38.7721 30.0674C38.5086 30.5175 38.1271 30.868 37.6272 31.119C37.1304 31.37 36.5288 31.4955 35.8224 31.4955H33.5103V29.9939H35.5082C35.8823 29.9939 36.1906 29.9318 36.433 29.8078C36.6784 29.6808 36.861 29.5063 36.9807 29.2842C37.1034 29.0591 37.1648 28.8009 37.1648 28.5095C37.1648 28.2153 37.1034 27.9585 36.9807 27.7393C36.861 27.5171 36.6784 27.3455 36.433 27.2243C36.1876 27.1002 35.8763 27.0383 35.4992 27.0383H34.1882V34.3689H32.2443ZM43.3985 34.4988C42.7009 34.4988 42.098 34.3559 41.5893 34.0703C41.0834 33.7818 40.6927 33.3808 40.4173 32.8673C40.1419 32.3509 40.0042 31.7522 40.0042 31.0714C40.0042 30.3848 40.1419 29.7847 40.4173 29.2712C40.6927 28.7548 41.0834 28.3538 41.5893 28.0682C42.098 27.7797 42.7009 27.6354 43.3985 27.6354C44.0961 27.6354 44.6976 27.7797 45.2035 28.0682C45.7122 28.3538 46.1043 28.7548 46.3797 29.2712C46.6551 29.7847 46.7928 30.3848 46.7928 31.0714C46.7928 31.7522 46.6551 32.3509 46.3797 32.8673C46.1043 33.3808 45.7122 33.7818 45.2035 34.0703C44.6976 34.3559 44.0961 34.4988 43.3985 34.4988ZM43.4076 33.0707C43.7246 33.0707 43.9895 32.9841 44.2023 32.811C44.4146 32.635 44.5747 32.3956 44.6823 32.0927C44.7932 31.7897 44.8487 31.445 44.8487 31.0584C44.8487 30.6719 44.7932 30.3271 44.6823 30.0241C44.5747 29.7213 44.4146 29.4818 44.2023 29.3058C43.9895 29.1298 43.7246 29.0418 43.4076 29.0418C43.0873 29.0418 42.8181 29.1298 42.5996 29.3058C42.3839 29.4818 42.2209 29.7213 42.1099 30.0241C42.0024 30.3271 41.9483 30.6719 41.9483 31.0584C41.9483 31.445 42.0024 31.7897 42.1099 32.0927C42.2209 32.3956 42.3839 32.635 42.5996 32.811C42.8181 32.9841 43.0873 33.0707 43.4076 33.0707ZM49.2237 34.3689L47.347 27.722H49.282L50.3506 32.1879H50.4133L51.5269 27.722H53.426L54.5573 32.1619H54.6156L55.6661 27.722H57.5968L55.7244 34.3689H53.7L52.5147 30.1886H52.4291L51.2438 34.3689H49.2237ZM61.5869 34.4988C60.8773 34.4988 60.2667 34.3603 59.7551 34.0833C59.2464 33.8034 58.8543 33.4082 58.5789 32.8976C58.3035 32.384 58.1658 31.7768 58.1658 31.0757C58.1658 30.392 58.3035 29.7919 58.5789 29.2755C58.8543 28.7591 59.2416 28.3567 59.7417 28.0682C60.2442 27.7797 60.8343 27.6354 61.5103 27.6354C61.9655 27.6354 62.3892 27.7061 62.7812 27.8475C63.1762 27.9859 63.5204 28.1951 63.8135 28.4749C64.11 28.7548 64.3404 29.1067 64.5049 29.5308C64.6694 29.952 64.7521 30.4454 64.7521 31.0108V31.5171H58.9289V30.3747H62.9514C62.9514 30.1093 62.8917 29.8741 62.7721 29.6693C62.6521 29.4645 62.4862 29.3044 62.2739 29.189C62.064 29.0707 61.8202 29.0116 61.5419 29.0116C61.2517 29.0116 60.994 29.0765 60.7697 29.2063C60.5483 29.3332 60.3748 29.5049 60.249 29.7213C60.1233 29.9347 60.0587 30.1727 60.0559 30.4353V31.5215C60.0559 31.8504 60.1185 32.1345 60.2442 32.374C60.3733 32.6134 60.5541 32.798 60.7879 32.9279C61.0212 33.0577 61.2981 33.1226 61.6184 33.1226C61.8307 33.1226 62.0253 33.0937 62.2017 33.036C62.3786 32.9784 62.5297 32.8918 62.6555 32.7764C62.7812 32.661 62.8769 32.5196 62.9428 32.3523L64.7115 32.4648C64.6216 32.8745 64.4375 33.2322 64.1592 33.538C63.8838 33.841 63.5276 34.0775 63.0906 34.2478C62.6569 34.4151 62.1554 34.4988 61.5869 34.4988ZM66 34.3689V27.722H67.8543V28.8817H67.926C68.0517 28.4692 68.2626 28.1576 68.559 27.947C68.8555 27.7335 69.1964 27.6268 69.5827 27.6268C69.6784 27.6268 69.7816 27.6325 69.8926 27.6441C70.003 27.6556 70.1006 27.6715 70.1842 27.6917V29.3274C70.0943 29.3015 69.9705 29.2784 69.8118 29.2582C69.653 29.238 69.5077 29.2279 69.3762 29.2279C69.095 29.2279 68.8435 29.2871 68.6222 29.4053C68.4036 29.5207 68.2296 29.6823 68.101 29.89C67.9752 30.0977 67.9126 30.3372 67.9126 30.6084V34.3689H66ZM71.173 34.3689V27.722H73.0856V34.3689H71.173ZM72.1341 26.8651C71.8496 26.8651 71.6057 26.7743 71.402 26.5925C71.2017 26.4079 71.1013 26.1872 71.1013 25.9304C71.1013 25.6765 71.2017 25.4587 71.402 25.277C71.6057 25.0923 71.8496 25 72.1341 25C72.4181 25 72.6605 25.0923 72.8613 25.277C73.0645 25.4587 73.1664 25.6765 73.1664 25.9304C73.1664 26.1872 73.0645 26.4079 72.8613 26.5925C72.6605 26.7743 72.4181 26.8651 72.1341 26.8651ZM76.5301 30.5261V34.3689H74.6175V27.722H76.4407V28.8947H76.5215C76.674 28.5081 76.9298 28.2023 77.2889 27.9773C77.6479 27.7494 78.0835 27.6354 78.5956 27.6354C79.0742 27.6354 79.4916 27.7364 79.8478 27.9383C80.2041 28.1403 80.4809 28.4288 80.6784 28.8038C80.8763 29.176 80.9748 29.6203 80.9748 30.1367V34.3689H79.0623V30.4656C79.0651 30.0588 78.9576 29.7415 78.7391 29.5135C78.5205 29.2827 78.2198 29.1673 77.8368 29.1673C77.5791 29.1673 77.352 29.2207 77.1545 29.3274C76.9599 29.4342 76.8069 29.59 76.6965 29.7948C76.5884 29.9968 76.5334 30.2405 76.5301 30.5261ZM85.5888 37C84.9697 37 84.4384 36.9178 83.9952 36.7533C83.5553 36.5918 83.2053 36.3711 82.9447 36.0913C82.6842 35.8114 82.5154 35.4969 82.4374 35.1478L84.2061 34.9185C84.2601 35.0512 84.3457 35.1753 84.4623 35.2907C84.579 35.4061 84.733 35.4984 84.9247 35.5676C85.1193 35.6397 85.3555 35.6758 85.6338 35.6758C86.0498 35.6758 86.3926 35.5777 86.6623 35.3815C86.9343 35.1882 87.0706 34.8637 87.0706 34.4079V33.1919H86.9898C86.9061 33.3765 86.7804 33.551 86.6125 33.7155C86.4452 33.8799 86.2295 34.0141 85.9661 34.1179C85.7026 34.2218 85.3885 34.2737 85.0232 34.2737C84.5054 34.2737 84.0339 34.1583 83.6094 33.9275C83.1872 33.6938 82.8505 33.3375 82.599 32.8586C82.3504 32.3769 82.2266 31.7681 82.2266 31.0324C82.2266 30.2795 82.3538 29.6506 82.6081 29.1457C82.8625 28.6408 83.2005 28.2629 83.6227 28.0119C84.0478 27.7609 84.513 27.6354 85.0189 27.6354C85.4048 27.6354 85.7285 27.6989 85.9886 27.8258C86.2491 27.9499 86.4586 28.1057 86.6173 28.2932C86.7789 28.4778 86.9028 28.6596 86.9898 28.8385H87.0615V27.722H88.9607V34.4338C88.9607 34.9993 88.8172 35.4724 88.5299 35.8532C88.2425 36.234 87.8442 36.5196 87.3355 36.7101C86.8296 36.9034 86.2477 37 85.5888 37ZM85.6295 32.8889C85.9379 32.8889 86.198 32.8154 86.4108 32.6682C86.6259 32.5182 86.7909 32.3047 86.9047 32.0278C87.0213 31.7479 87.0797 31.4133 87.0797 31.0238C87.0797 30.6343 87.0228 30.2968 86.909 30.0112C86.7952 29.7227 86.6307 29.4991 86.4151 29.3404C86.1994 29.1818 85.9379 29.1024 85.6295 29.1024C85.3153 29.1024 85.0505 29.1846 84.8348 29.3491C84.6192 29.5106 84.4561 29.7357 84.3457 30.0241C84.2348 30.3127 84.1793 30.6459 84.1793 31.0238C84.1793 31.4075 84.2348 31.7393 84.3457 32.0191C84.459 32.2961 84.6225 32.511 84.8348 32.6639C85.0505 32.8139 85.3153 32.8889 85.6295 32.8889ZM93.3457 34.3689V33.2568L97.9343 27.0512H93.337V25.5063H100.377V26.6185L95.7837 32.824H100.385V34.3689H93.3457ZM101.527 27.0512V25.5063H109.078V27.0512H106.263V34.3689H104.342V27.0512H101.527ZM118.013 25.5063V34.3689H116.334L112.333 28.7909H112.266V34.3689H110.322V25.5063H112.028L115.997 31.0801H116.078V25.5063H118.013ZM121.203 34.3689H119.121L122.294 25.5063H124.799L127.969 34.3689H125.886L123.583 27.5316H123.511L121.203 34.3689ZM121.073 30.8853H125.994V32.348H121.073V30.8853Z" fill="#1A3967"/>
</svg>
